<mxfile host="app.diagrams.net" modified="2024-04-19T02:59:15.400Z" agent="Mozilla/5.0 (Macintosh; Intel Mac OS X 10_15_7) AppleWebKit/605.1.15 (KHTML, like Gecko) Version/17.4.1 Safari/605.1.15" etag="fUw-bP1-caY0fx9rJHa2" version="24.2.5" type="github">
  <diagram name="第 1 页" id="9HZtbgqMaROQLFbGixdH">
    <mxGraphModel dx="1434" dy="802" grid="1" gridSize="10" guides="1" tooltips="1" connect="1" arrows="1" fold="1" page="1" pageScale="1" pageWidth="827" pageHeight="1169" math="0" shadow="0">
      <root>
        <mxCell id="0" />
        <mxCell id="1" parent="0" />
        <mxCell id="lLSJ5WPPbkV0wE_fg9DA-1" value="" style="rounded=0;whiteSpace=wrap;html=1;" vertex="1" parent="1">
          <mxGeometry x="150" y="340" width="60" height="40" as="geometry" />
        </mxCell>
        <mxCell id="lLSJ5WPPbkV0wE_fg9DA-2" value="" style="rounded=1;whiteSpace=wrap;html=1;" vertex="1" parent="1">
          <mxGeometry x="210" y="230" width="170" height="260" as="geometry" />
        </mxCell>
        <mxCell id="lLSJ5WPPbkV0wE_fg9DA-3" value="USB插头" style="text;html=1;align=center;verticalAlign=middle;whiteSpace=wrap;rounded=0;" vertex="1" parent="1">
          <mxGeometry x="150" y="310" width="60" height="30" as="geometry" />
        </mxCell>
        <mxCell id="lLSJ5WPPbkV0wE_fg9DA-4" value="北斗短报文模组" style="whiteSpace=wrap;html=1;aspect=fixed;" vertex="1" parent="1">
          <mxGeometry x="255" y="320" width="80" height="80" as="geometry" />
        </mxCell>
        <mxCell id="lLSJ5WPPbkV0wE_fg9DA-5" value="天线" style="text;html=1;align=center;verticalAlign=middle;whiteSpace=wrap;rounded=0;" vertex="1" parent="1">
          <mxGeometry x="320" y="200" width="60" height="30" as="geometry" />
        </mxCell>
      </root>
    </mxGraphModel>
  </diagram>
</mxfile>
